<svg xmlns="http://www.w3.org/2000/svg" width="15.923" height="17.649" viewBox="0 0 15.923 17.649">
  <defs>
    <style>
      .cls-1 {
        fill: #fff;
        fill-rule: evenodd;
      }
    </style>
  </defs>
  <g id="그룹_688" data-name="그룹 688" transform="translate(0)">
    <g id="그룹_689" data-name="그룹 689" transform="translate(0)">
      <path id="패스_1144" data-name="패스 1144" class="cls-1" d="M7.948,0h0a.9.9,0,0,1,.9.9v1.75l1.208-1.208a.59.59,0,1,1,.834.834L8.849,4.32V6.431a2.661,2.661,0,0,1,.807.463l1.782-1.1L12.1,2.982a.59.59,0,0,1,1.148.271l-.393,1.663L14.346,4a.9.9,0,0,1,.947,1.533l-1.489.92,1.663.393A.59.59,0,0,1,15.2,7.99l-2.812-.664L10.568,8.449a2.7,2.7,0,0,1,.031.77l1.786,1.1L15.2,9.659a.592.592,0,0,1,.71.439h0a.592.592,0,0,1-.439.71L13.8,11.2l1.489.92a.9.9,0,0,1-.947,1.533l-1.489-.92L13.25,14.4a.59.59,0,1,1-1.148.271l-.664-2.812L9.809,10.849a2.667,2.667,0,0,1-.96.6v1.879l2.043,2.043a.592.592,0,0,1,0,.834h0a.592.592,0,0,1-.834,0L8.849,15v1.75a.9.9,0,0,1-1.8,0V15L5.838,16.207a.591.591,0,0,1-.834,0H5a.592.592,0,0,1,0-.834l2.043-2.043V11.451a2.668,2.668,0,0,1-.95-.591l-1.613,1L3.82,14.667a.592.592,0,0,1-.71.439h0a.592.592,0,0,1-.438-.71l.393-1.663-1.489.92A.9.9,0,1,1,.629,12.12l1.489-.92L.454,10.807a.591.591,0,0,1-.439-.71h0a.592.592,0,0,1,.71-.439l2.812.664L5.3,9.235a2.682,2.682,0,0,1,.032-.8L3.537,7.326.725,7.99A.59.59,0,0,1,.454,6.842l1.663-.393L.629,5.529A.9.9,0,1,1,1.576,4l1.489.92L2.672,3.253a.592.592,0,0,1,.438-.71h0a.591.591,0,0,1,.71.439l.664,2.812L6.251,6.885a2.668,2.668,0,0,1,.8-.454V4.32L5,2.277a.592.592,0,0,1,0-.834H5a.591.591,0,0,1,.834,0L7.047,2.651V.9a.9.9,0,0,1,.9-.9m0,7.589A1.351,1.351,0,1,1,6.6,8.941,1.351,1.351,0,0,1,7.948,7.589" transform="translate(0)"/>
    </g>
  </g>
</svg>
