<svg xmlns="http://www.w3.org/2000/svg" width="17.29" height="15.96" viewBox="0 0 17.29 15.96">
  <defs>
    <style>
      .cls-1 {
        fill: #fff;
      }
    </style>
  </defs>
  <g id="그룹_691" data-name="그룹 691" transform="translate(0 0.001)">
    <g id="그룹_692" data-name="그룹 692" transform="translate(0 -0.001)">
      <path id="패스_1145" data-name="패스 1145" class="cls-1" d="M.977,4.106l.293.03a.02.02,0,0,1,.012.037,2.4,2.4,0,0,0-1.05,1.72l-.1,1a.308.308,0,0,0,.29.324l12.734,1.32a.307.307,0,0,0,.349-.256l.1-1a2.4,2.4,0,0,0-.675-1.9.021.021,0,0,1,.019-.034l.293.03a1.039,1.039,0,0,0,1.128-.64.952.952,0,0,0-.88-1.183l-1.13-.117a.024.024,0,0,1-.021-.017l-.347-1.279A2.329,2.329,0,0,0,9.949.506L5.2.013A2.33,2.33,0,0,0,2.864,1.2l-.6,1.18a.024.024,0,0,1-.024.012l-1.13-.117A.952.952,0,0,0,0,3.248a1.039,1.039,0,0,0,.973.857M3.723,1.57a1.384,1.384,0,0,1,1.388-.7L9.86,1.36a1.385,1.385,0,0,1,1.214.972l.5,1.858a.022.022,0,0,1-.025.026l-8.685-.9a.022.022,0,0,1-.019-.031Z" transform="translate(0 0.001)"/>
      <path id="패스_1146" data-name="패스 1146" class="cls-1" d="M1.875,25.21.529,25.07a.28.28,0,0,1-.25-.308l.184-1.776a.281.281,0,0,1,.308-.25l1.346.14a.28.28,0,0,1,.25.308L2.183,24.96a.281.281,0,0,1-.308.25" transform="translate(-0.186 -15.214)"/>
      <path id="패스_1147" data-name="패스 1147" class="cls-1" d="M35.049,28.649l-1.346-.14a.28.28,0,0,1-.25-.308l.184-1.776a.281.281,0,0,1,.308-.25l1.346.14a.28.28,0,0,1,.25.308L35.357,28.4a.281.281,0,0,1-.308.25" transform="translate(-22.386 -17.515)"/>
      <path id="패스_1148" data-name="패스 1148" class="cls-1" d="M26.8,37.331c9.967-1.164-.327-4.025-2.071-4.454-1.6-.393.467-.372.908-.441.8-.125-.029-.356-.168-.358-.7-.008-3.07.279-1.625,1.064s6.631,2.5-.216,3.025c-6.818.524-.41,1.582,3.171,1.163" transform="translate(-13.801 -21.467)"/>
      <path id="패스_1149" data-name="패스 1149" class="cls-1" d="M13.655,31.616c-.767,0-6.644,2.117-2.407,3.083a28.4,28.4,0,0,0,6.235.436c.626-.045-1.079-1.173-2.265-1.338s-4.841.04-3.991-.722a6.541,6.541,0,0,1,2.934-1.348Z" transform="translate(-6.509 -21.157)"/>
    </g>
  </g>
</svg>
