<svg id="Layer_1" data-name="Layer 1" xmlns="http://www.w3.org/2000/svg" viewBox="0 0 23.82 23.76"><defs><style>.cls-1{fill:#333;}</style></defs><path class="cls-1" d="M13.65,10.31H10.32v3.38h3.33Zm5.1,0H15.41v3.38h3.34Zm-5.1,5.1H10.32v3.38h3.33ZM22.21,1.79H20.52V.12h-3.4V1.79H6.92V.12H3.58V1.79H1.79a1.7,1.7,0,0,0-1.7,1.7V22.18a1.7,1.7,0,0,0,1.7,1.7H22.21a1.7,1.7,0,0,0,1.7-1.7V3.49A1.7,1.7,0,0,0,22.21,1.79Zm-.06,20.45H1.82V7H22.15ZM8.56,15.41H5.22v3.38H8.56Zm0-5.1H5.22v3.38H8.56Zm10.19,5.1H15.41v3.38h3.34Z" transform="translate(-0.09 -0.12)"/></svg>